<mxfile host="Electron" modified="2024-05-15T16:46:34.134Z" agent="Mozilla/5.0 (Windows NT 10.0; Win64; x64) AppleWebKit/537.36 (KHTML, like Gecko) draw.io/24.4.0 Chrome/120.0.6099.109 Electron/28.1.0 Safari/537.36" etag="vFcXqEcOUl2M1gxSynld" version="24.4.0" type="device">
  <diagram id="C5RBs43oDa-KdzZeNtuy" name="Page-1">
    <mxGraphModel dx="1969" dy="1393" grid="1" gridSize="10" guides="1" tooltips="1" connect="1" arrows="1" fold="1" page="0" pageScale="1" pageWidth="1100" pageHeight="850" math="0" shadow="0">
      <root>
        <mxCell id="WIyWlLk6GJQsqaUBKTNV-0" />
        <mxCell id="WIyWlLk6GJQsqaUBKTNV-1" parent="WIyWlLk6GJQsqaUBKTNV-0" />
        <mxCell id="WeUVqObXeXaD6YGCWdsq-15" value="Coal" style="edgeStyle=orthogonalEdgeStyle;rounded=0;orthogonalLoop=1;jettySize=auto;html=1;exitX=0.5;exitY=1;exitDx=0;exitDy=0;entryX=0.25;entryY=0;entryDx=0;entryDy=0;" parent="WIyWlLk6GJQsqaUBKTNV-1" source="WeUVqObXeXaD6YGCWdsq-0" target="WeUVqObXeXaD6YGCWdsq-8" edge="1">
          <mxGeometry relative="1" as="geometry" />
        </mxCell>
        <mxCell id="WeUVqObXeXaD6YGCWdsq-0" value="Coal Mine" style="ellipse;whiteSpace=wrap;html=1;" parent="WIyWlLk6GJQsqaUBKTNV-1" vertex="1">
          <mxGeometry x="330" y="10" width="120" height="80" as="geometry" />
        </mxCell>
        <mxCell id="WeUVqObXeXaD6YGCWdsq-17" value="Logs" style="edgeStyle=orthogonalEdgeStyle;rounded=0;orthogonalLoop=1;jettySize=auto;html=1;exitX=0.5;exitY=1;exitDx=0;exitDy=0;entryX=0.5;entryY=0;entryDx=0;entryDy=0;" parent="WIyWlLk6GJQsqaUBKTNV-1" source="WeUVqObXeXaD6YGCWdsq-3" target="WeUVqObXeXaD6YGCWdsq-9" edge="1">
          <mxGeometry relative="1" as="geometry">
            <Array as="points">
              <mxPoint x="710" y="150" />
              <mxPoint x="710" y="150" />
            </Array>
            <mxPoint as="offset" />
          </mxGeometry>
        </mxCell>
        <mxCell id="WeUVqObXeXaD6YGCWdsq-22" style="edgeStyle=orthogonalEdgeStyle;rounded=0;orthogonalLoop=1;jettySize=auto;html=1;exitX=0.5;exitY=1;exitDx=0;exitDy=0;entryX=0.25;entryY=0;entryDx=0;entryDy=0;" parent="WIyWlLk6GJQsqaUBKTNV-1" source="WeUVqObXeXaD6YGCWdsq-3" target="WeUVqObXeXaD6YGCWdsq-21" edge="1">
          <mxGeometry relative="1" as="geometry">
            <Array as="points">
              <mxPoint x="710" y="110" />
              <mxPoint x="840" y="110" />
            </Array>
          </mxGeometry>
        </mxCell>
        <mxCell id="WeUVqObXeXaD6YGCWdsq-32" value="Wood Chips" style="edgeLabel;html=1;align=center;verticalAlign=middle;resizable=0;points=[];" parent="WeUVqObXeXaD6YGCWdsq-22" vertex="1" connectable="0">
          <mxGeometry x="0.5886" y="-1" relative="1" as="geometry">
            <mxPoint y="42" as="offset" />
          </mxGeometry>
        </mxCell>
        <mxCell id="WeUVqObXeXaD6YGCWdsq-3" value="Forest" style="ellipse;whiteSpace=wrap;html=1;" parent="WIyWlLk6GJQsqaUBKTNV-1" vertex="1">
          <mxGeometry x="650" y="10" width="120" height="80" as="geometry" />
        </mxCell>
        <mxCell id="WeUVqObXeXaD6YGCWdsq-11" style="edgeStyle=orthogonalEdgeStyle;rounded=0;orthogonalLoop=1;jettySize=auto;html=1;exitX=0.5;exitY=1;exitDx=0;exitDy=0;entryX=0.25;entryY=0;entryDx=0;entryDy=0;" parent="WIyWlLk6GJQsqaUBKTNV-1" source="WeUVqObXeXaD6YGCWdsq-4" target="WeUVqObXeXaD6YGCWdsq-10" edge="1">
          <mxGeometry relative="1" as="geometry" />
        </mxCell>
        <mxCell id="WeUVqObXeXaD6YGCWdsq-38" value="Grain" style="edgeLabel;html=1;align=center;verticalAlign=middle;resizable=0;points=[];" parent="WeUVqObXeXaD6YGCWdsq-11" vertex="1" connectable="0">
          <mxGeometry x="-0.1538" y="1" relative="1" as="geometry">
            <mxPoint x="5" y="1" as="offset" />
          </mxGeometry>
        </mxCell>
        <mxCell id="WeUVqObXeXaD6YGCWdsq-4" value="Farm" style="ellipse;whiteSpace=wrap;html=1;" parent="WIyWlLk6GJQsqaUBKTNV-1" vertex="1">
          <mxGeometry x="10" y="10" width="120" height="80" as="geometry" />
        </mxCell>
        <mxCell id="WeUVqObXeXaD6YGCWdsq-28" value="Oil" style="edgeStyle=orthogonalEdgeStyle;rounded=0;orthogonalLoop=1;jettySize=auto;html=1;exitX=0.5;exitY=1;exitDx=0;exitDy=0;entryX=0.5;entryY=0;entryDx=0;entryDy=0;" parent="WIyWlLk6GJQsqaUBKTNV-1" source="WeUVqObXeXaD6YGCWdsq-5" target="WeUVqObXeXaD6YGCWdsq-23" edge="1">
          <mxGeometry relative="1" as="geometry" />
        </mxCell>
        <mxCell id="WeUVqObXeXaD6YGCWdsq-5" value="Oil Wells" style="ellipse;whiteSpace=wrap;html=1;" parent="WIyWlLk6GJQsqaUBKTNV-1" vertex="1">
          <mxGeometry x="970" y="10" width="120" height="80" as="geometry" />
        </mxCell>
        <mxCell id="WeUVqObXeXaD6YGCWdsq-12" value="Livestock" style="edgeStyle=orthogonalEdgeStyle;rounded=0;orthogonalLoop=1;jettySize=auto;html=1;exitX=0.5;exitY=1;exitDx=0;exitDy=0;entryX=0.75;entryY=0;entryDx=0;entryDy=0;" parent="WIyWlLk6GJQsqaUBKTNV-1" source="WeUVqObXeXaD6YGCWdsq-6" target="WeUVqObXeXaD6YGCWdsq-10" edge="1">
          <mxGeometry x="-0.0769" relative="1" as="geometry">
            <mxPoint x="150" y="170" as="targetPoint" />
            <mxPoint as="offset" />
          </mxGeometry>
        </mxCell>
        <mxCell id="WeUVqObXeXaD6YGCWdsq-6" value="Ranch" style="ellipse;whiteSpace=wrap;html=1;" parent="WIyWlLk6GJQsqaUBKTNV-1" vertex="1">
          <mxGeometry x="170" y="10" width="120" height="80" as="geometry" />
        </mxCell>
        <mxCell id="WeUVqObXeXaD6YGCWdsq-16" value="Iron Ore" style="edgeStyle=orthogonalEdgeStyle;rounded=0;orthogonalLoop=1;jettySize=auto;html=1;exitX=0.5;exitY=1;exitDx=0;exitDy=0;entryX=0.75;entryY=0;entryDx=0;entryDy=0;" parent="WIyWlLk6GJQsqaUBKTNV-1" source="WeUVqObXeXaD6YGCWdsq-7" target="WeUVqObXeXaD6YGCWdsq-8" edge="1">
          <mxGeometry relative="1" as="geometry" />
        </mxCell>
        <mxCell id="WeUVqObXeXaD6YGCWdsq-7" value="Iron Mine" style="ellipse;whiteSpace=wrap;html=1;" parent="WIyWlLk6GJQsqaUBKTNV-1" vertex="1">
          <mxGeometry x="490" y="10" width="120" height="80" as="geometry" />
        </mxCell>
        <mxCell id="WeUVqObXeXaD6YGCWdsq-19" style="edgeStyle=orthogonalEdgeStyle;rounded=0;orthogonalLoop=1;jettySize=auto;html=1;exitX=0.5;exitY=1;exitDx=0;exitDy=0;entryX=0.25;entryY=0;entryDx=0;entryDy=0;" parent="WIyWlLk6GJQsqaUBKTNV-1" source="WeUVqObXeXaD6YGCWdsq-8" target="WeUVqObXeXaD6YGCWdsq-18" edge="1">
          <mxGeometry relative="1" as="geometry" />
        </mxCell>
        <mxCell id="WeUVqObXeXaD6YGCWdsq-33" value="Steel" style="edgeLabel;html=1;align=center;verticalAlign=middle;resizable=0;points=[];" parent="WeUVqObXeXaD6YGCWdsq-19" vertex="1" connectable="0">
          <mxGeometry x="0.1647" y="-1" relative="1" as="geometry">
            <mxPoint as="offset" />
          </mxGeometry>
        </mxCell>
        <mxCell id="WeUVqObXeXaD6YGCWdsq-8" value="Steel Mill" style="rounded=0;whiteSpace=wrap;html=1;" parent="WIyWlLk6GJQsqaUBKTNV-1" vertex="1">
          <mxGeometry x="410" y="170" width="120" height="60" as="geometry" />
        </mxCell>
        <mxCell id="WeUVqObXeXaD6YGCWdsq-20" value="Lumber" style="edgeStyle=orthogonalEdgeStyle;rounded=0;orthogonalLoop=1;jettySize=auto;html=1;exitX=0.5;exitY=1;exitDx=0;exitDy=0;entryX=0.75;entryY=0;entryDx=0;entryDy=0;" parent="WIyWlLk6GJQsqaUBKTNV-1" source="WeUVqObXeXaD6YGCWdsq-9" target="WeUVqObXeXaD6YGCWdsq-18" edge="1">
          <mxGeometry relative="1" as="geometry" />
        </mxCell>
        <mxCell id="WeUVqObXeXaD6YGCWdsq-9" value="Sawmill" style="whiteSpace=wrap;html=1;" parent="WIyWlLk6GJQsqaUBKTNV-1" vertex="1">
          <mxGeometry x="650" y="170" width="120" height="60" as="geometry" />
        </mxCell>
        <mxCell id="WeUVqObXeXaD6YGCWdsq-29" style="edgeStyle=orthogonalEdgeStyle;rounded=0;orthogonalLoop=1;jettySize=auto;html=1;exitX=0.5;exitY=1;exitDx=0;exitDy=0;entryX=0.25;entryY=0;entryDx=0;entryDy=0;" parent="WIyWlLk6GJQsqaUBKTNV-1" source="WeUVqObXeXaD6YGCWdsq-10" target="WeUVqObXeXaD6YGCWdsq-14" edge="1">
          <mxGeometry relative="1" as="geometry" />
        </mxCell>
        <mxCell id="WeUVqObXeXaD6YGCWdsq-35" value="Food" style="edgeLabel;html=1;align=center;verticalAlign=middle;resizable=0;points=[];" parent="WeUVqObXeXaD6YGCWdsq-29" vertex="1" connectable="0">
          <mxGeometry x="0.8405" y="-1" relative="1" as="geometry">
            <mxPoint y="3" as="offset" />
          </mxGeometry>
        </mxCell>
        <mxCell id="WeUVqObXeXaD6YGCWdsq-10" value="Food Processing Plant" style="rounded=0;whiteSpace=wrap;html=1;" parent="WIyWlLk6GJQsqaUBKTNV-1" vertex="1">
          <mxGeometry x="90" y="170" width="120" height="60" as="geometry" />
        </mxCell>
        <mxCell id="WeUVqObXeXaD6YGCWdsq-45" value="Waste" style="edgeStyle=orthogonalEdgeStyle;rounded=0;orthogonalLoop=1;jettySize=auto;html=1;exitX=0.5;exitY=1;exitDx=0;exitDy=0;entryX=0.5;entryY=0;entryDx=0;entryDy=0;" parent="WIyWlLk6GJQsqaUBKTNV-1" source="WeUVqObXeXaD6YGCWdsq-14" target="WeUVqObXeXaD6YGCWdsq-44" edge="1">
          <mxGeometry relative="1" as="geometry" />
        </mxCell>
        <mxCell id="WeUVqObXeXaD6YGCWdsq-14" value="HOUSES" style="shape=trapezoid;perimeter=trapezoidPerimeter;whiteSpace=wrap;html=1;fixedSize=1;" parent="WIyWlLk6GJQsqaUBKTNV-1" vertex="1">
          <mxGeometry x="530" y="610" width="120" height="60" as="geometry" />
        </mxCell>
        <mxCell id="WeUVqObXeXaD6YGCWdsq-30" value="Building&lt;br&gt;Materials" style="edgeStyle=orthogonalEdgeStyle;rounded=0;orthogonalLoop=1;jettySize=auto;html=1;exitX=0.5;exitY=1;exitDx=0;exitDy=0;entryX=0.5;entryY=0;entryDx=0;entryDy=0;" parent="WIyWlLk6GJQsqaUBKTNV-1" source="WeUVqObXeXaD6YGCWdsq-18" target="WeUVqObXeXaD6YGCWdsq-14" edge="1">
          <mxGeometry x="0.25" relative="1" as="geometry">
            <mxPoint as="offset" />
          </mxGeometry>
        </mxCell>
        <mxCell id="q9zW0HBqPHYGfLHhzIOr-2" style="edgeStyle=orthogonalEdgeStyle;rounded=0;orthogonalLoop=1;jettySize=auto;html=1;exitX=0.5;exitY=1;exitDx=0;exitDy=0;entryX=0.5;entryY=0;entryDx=0;entryDy=0;" edge="1" parent="WIyWlLk6GJQsqaUBKTNV-1" source="WeUVqObXeXaD6YGCWdsq-18" target="q9zW0HBqPHYGfLHhzIOr-0">
          <mxGeometry relative="1" as="geometry">
            <Array as="points">
              <mxPoint x="590" y="570" />
              <mxPoint x="470" y="570" />
            </Array>
          </mxGeometry>
        </mxCell>
        <mxCell id="WeUVqObXeXaD6YGCWdsq-18" value="Building Materials&lt;br&gt;Factory" style="rounded=0;whiteSpace=wrap;html=1;" parent="WIyWlLk6GJQsqaUBKTNV-1" vertex="1">
          <mxGeometry x="530" y="310" width="120" height="60" as="geometry" />
        </mxCell>
        <mxCell id="WeUVqObXeXaD6YGCWdsq-26" value="Paper" style="edgeStyle=orthogonalEdgeStyle;rounded=0;orthogonalLoop=1;jettySize=auto;html=1;exitX=0.5;exitY=1;exitDx=0;exitDy=0;entryX=0.25;entryY=0;entryDx=0;entryDy=0;" parent="WIyWlLk6GJQsqaUBKTNV-1" source="WeUVqObXeXaD6YGCWdsq-21" target="WeUVqObXeXaD6YGCWdsq-25" edge="1">
          <mxGeometry relative="1" as="geometry" />
        </mxCell>
        <mxCell id="WeUVqObXeXaD6YGCWdsq-21" value="Paper Mill" style="rounded=0;whiteSpace=wrap;html=1;" parent="WIyWlLk6GJQsqaUBKTNV-1" vertex="1">
          <mxGeometry x="810" y="310" width="120" height="60" as="geometry" />
        </mxCell>
        <mxCell id="WeUVqObXeXaD6YGCWdsq-24" style="edgeStyle=orthogonalEdgeStyle;rounded=0;orthogonalLoop=1;jettySize=auto;html=1;exitX=0.5;exitY=1;exitDx=0;exitDy=0;entryX=0.75;entryY=0;entryDx=0;entryDy=0;" parent="WIyWlLk6GJQsqaUBKTNV-1" source="WeUVqObXeXaD6YGCWdsq-23" target="WeUVqObXeXaD6YGCWdsq-21" edge="1">
          <mxGeometry relative="1" as="geometry" />
        </mxCell>
        <mxCell id="WeUVqObXeXaD6YGCWdsq-37" value="Chemicals" style="edgeLabel;html=1;align=center;verticalAlign=middle;resizable=0;points=[];" parent="WeUVqObXeXaD6YGCWdsq-24" vertex="1" connectable="0">
          <mxGeometry x="0.2286" y="2" relative="1" as="geometry">
            <mxPoint as="offset" />
          </mxGeometry>
        </mxCell>
        <mxCell id="WeUVqObXeXaD6YGCWdsq-27" style="edgeStyle=orthogonalEdgeStyle;rounded=0;orthogonalLoop=1;jettySize=auto;html=1;exitX=0.5;exitY=1;exitDx=0;exitDy=0;entryX=0.75;entryY=0;entryDx=0;entryDy=0;" parent="WIyWlLk6GJQsqaUBKTNV-1" source="WeUVqObXeXaD6YGCWdsq-23" target="WeUVqObXeXaD6YGCWdsq-25" edge="1">
          <mxGeometry relative="1" as="geometry">
            <Array as="points">
              <mxPoint x="1030" y="270" />
              <mxPoint x="1060" y="270" />
            </Array>
          </mxGeometry>
        </mxCell>
        <mxCell id="WeUVqObXeXaD6YGCWdsq-36" value="Plastic" style="edgeLabel;html=1;align=center;verticalAlign=middle;resizable=0;points=[];" parent="WeUVqObXeXaD6YGCWdsq-27" vertex="1" connectable="0">
          <mxGeometry x="0.64" y="-1" relative="1" as="geometry">
            <mxPoint y="-35" as="offset" />
          </mxGeometry>
        </mxCell>
        <mxCell id="WeUVqObXeXaD6YGCWdsq-23" value="Oil Refinery" style="rounded=0;whiteSpace=wrap;html=1;" parent="WIyWlLk6GJQsqaUBKTNV-1" vertex="1">
          <mxGeometry x="970" y="170" width="120" height="60" as="geometry" />
        </mxCell>
        <mxCell id="WeUVqObXeXaD6YGCWdsq-31" style="edgeStyle=orthogonalEdgeStyle;rounded=0;orthogonalLoop=1;jettySize=auto;html=1;exitX=0.5;exitY=1;exitDx=0;exitDy=0;entryX=0.75;entryY=0;entryDx=0;entryDy=0;" parent="WIyWlLk6GJQsqaUBKTNV-1" source="WeUVqObXeXaD6YGCWdsq-25" target="WeUVqObXeXaD6YGCWdsq-14" edge="1">
          <mxGeometry relative="1" as="geometry">
            <Array as="points">
              <mxPoint x="1030" y="550" />
              <mxPoint x="620" y="550" />
            </Array>
          </mxGeometry>
        </mxCell>
        <mxCell id="WeUVqObXeXaD6YGCWdsq-34" value="Goods" style="edgeLabel;html=1;align=center;verticalAlign=middle;resizable=0;points=[];" parent="WeUVqObXeXaD6YGCWdsq-31" vertex="1" connectable="0">
          <mxGeometry x="0.5059" y="2" relative="1" as="geometry">
            <mxPoint x="-36" y="-2" as="offset" />
          </mxGeometry>
        </mxCell>
        <mxCell id="WeUVqObXeXaD6YGCWdsq-25" value="Goods Factory" style="rounded=0;whiteSpace=wrap;html=1;" parent="WIyWlLk6GJQsqaUBKTNV-1" vertex="1">
          <mxGeometry x="970" y="450" width="120" height="60" as="geometry" />
        </mxCell>
        <mxCell id="WeUVqObXeXaD6YGCWdsq-40" value="&lt;h1&gt;Primary Industries&lt;/h1&gt;&lt;div&gt;Only in non-cities.&lt;/div&gt;&lt;div&gt;&lt;br&gt;&lt;/div&gt;&lt;div&gt;Production increases for every 1,000 population (up to 4,000 population about 640 tons/month).&lt;/div&gt;&lt;div&gt;&lt;br&gt;&lt;/div&gt;&lt;h1&gt;Secondary Industries&lt;/h1&gt;&lt;div&gt;Only in cities.&lt;/div&gt;&lt;div&gt;&lt;br&gt;&lt;/div&gt;&lt;div&gt;Process 1 unit per month of input cargo for every 5 population.&lt;/div&gt;&lt;div&gt;&lt;br&gt;&lt;/div&gt;&lt;div&gt;&lt;h1&gt;Town Growth Requirements&lt;/h1&gt;&lt;p&gt;Uses Renewed Village Growth GS&lt;/p&gt;&lt;p&gt;- Always: Passengers&lt;br&gt;- 1k+: Food&lt;br&gt;- 2k+: Building Materials&lt;br&gt;- 3k+: Goods&lt;br&gt;- 4k+: Valuables (only possible in cities)&lt;/p&gt;&lt;/div&gt;" style="text;html=1;strokeColor=none;fillColor=none;spacing=5;spacingTop=-20;whiteSpace=wrap;overflow=hidden;rounded=0;" parent="WIyWlLk6GJQsqaUBKTNV-1" vertex="1">
          <mxGeometry x="30" y="440" width="330" height="430" as="geometry" />
        </mxCell>
        <mxCell id="WeUVqObXeXaD6YGCWdsq-41" value="Bank" style="ellipse;whiteSpace=wrap;html=1;" parent="WIyWlLk6GJQsqaUBKTNV-1" vertex="1">
          <mxGeometry x="1140" y="10" width="120" height="80" as="geometry" />
        </mxCell>
        <mxCell id="WeUVqObXeXaD6YGCWdsq-43" value="Valuables" style="edgeStyle=orthogonalEdgeStyle;rounded=0;orthogonalLoop=1;jettySize=auto;html=1;exitX=0.5;exitY=1;exitDx=0;exitDy=0;entryX=0.5;entryY=0;entryDx=0;entryDy=0;" parent="WIyWlLk6GJQsqaUBKTNV-1" source="WeUVqObXeXaD6YGCWdsq-41" target="WeUVqObXeXaD6YGCWdsq-41" edge="1">
          <mxGeometry x="-0.0435" relative="1" as="geometry">
            <Array as="points">
              <mxPoint x="1200" y="130" />
              <mxPoint x="1300" y="130" />
              <mxPoint x="1300" y="-40" />
              <mxPoint x="1200" y="-40" />
            </Array>
            <mxPoint as="offset" />
          </mxGeometry>
        </mxCell>
        <mxCell id="WeUVqObXeXaD6YGCWdsq-46" style="edgeStyle=orthogonalEdgeStyle;rounded=0;orthogonalLoop=1;jettySize=auto;html=1;exitX=0.5;exitY=1;exitDx=0;exitDy=0;entryX=0;entryY=0.5;entryDx=0;entryDy=0;" parent="WIyWlLk6GJQsqaUBKTNV-1" source="WeUVqObXeXaD6YGCWdsq-44" target="WeUVqObXeXaD6YGCWdsq-21" edge="1">
          <mxGeometry relative="1" as="geometry">
            <Array as="points">
              <mxPoint x="590" y="860" />
              <mxPoint x="730" y="860" />
              <mxPoint x="730" y="340" />
            </Array>
          </mxGeometry>
        </mxCell>
        <mxCell id="WeUVqObXeXaD6YGCWdsq-49" value="Scrap Paper" style="edgeLabel;html=1;align=center;verticalAlign=middle;resizable=0;points=[];" parent="WeUVqObXeXaD6YGCWdsq-46" vertex="1" connectable="0">
          <mxGeometry x="0.8453" y="-2" relative="1" as="geometry">
            <mxPoint x="-22" y="28" as="offset" />
          </mxGeometry>
        </mxCell>
        <mxCell id="WeUVqObXeXaD6YGCWdsq-47" style="edgeStyle=orthogonalEdgeStyle;rounded=0;orthogonalLoop=1;jettySize=auto;html=1;exitX=0.5;exitY=1;exitDx=0;exitDy=0;" parent="WIyWlLk6GJQsqaUBKTNV-1" source="WeUVqObXeXaD6YGCWdsq-44" edge="1">
          <mxGeometry relative="1" as="geometry">
            <Array as="points">
              <mxPoint x="590" y="860" />
              <mxPoint x="1160" y="860" />
              <mxPoint x="1160" y="410" />
              <mxPoint x="1060" y="410" />
            </Array>
            <mxPoint x="1060" y="450" as="targetPoint" />
          </mxGeometry>
        </mxCell>
        <mxCell id="WeUVqObXeXaD6YGCWdsq-50" value="Plastic" style="edgeLabel;html=1;align=center;verticalAlign=middle;resizable=0;points=[];" parent="WeUVqObXeXaD6YGCWdsq-47" vertex="1" connectable="0">
          <mxGeometry x="0.8397" y="3" relative="1" as="geometry">
            <mxPoint y="-3" as="offset" />
          </mxGeometry>
        </mxCell>
        <mxCell id="WeUVqObXeXaD6YGCWdsq-48" style="edgeStyle=orthogonalEdgeStyle;rounded=0;orthogonalLoop=1;jettySize=auto;html=1;exitX=0.5;exitY=1;exitDx=0;exitDy=0;entryX=0;entryY=0.5;entryDx=0;entryDy=0;" parent="WIyWlLk6GJQsqaUBKTNV-1" source="WeUVqObXeXaD6YGCWdsq-44" target="WeUVqObXeXaD6YGCWdsq-8" edge="1">
          <mxGeometry relative="1" as="geometry">
            <Array as="points">
              <mxPoint x="590" y="860" />
              <mxPoint x="380" y="860" />
              <mxPoint x="380" y="200" />
            </Array>
          </mxGeometry>
        </mxCell>
        <mxCell id="WeUVqObXeXaD6YGCWdsq-51" value="Scrap Metal" style="edgeLabel;html=1;align=center;verticalAlign=middle;resizable=0;points=[];" parent="WeUVqObXeXaD6YGCWdsq-48" vertex="1" connectable="0">
          <mxGeometry x="0.767" y="1" relative="1" as="geometry">
            <mxPoint as="offset" />
          </mxGeometry>
        </mxCell>
        <mxCell id="WeUVqObXeXaD6YGCWdsq-44" value="Recycling Center" style="rounded=0;whiteSpace=wrap;html=1;" parent="WIyWlLk6GJQsqaUBKTNV-1" vertex="1">
          <mxGeometry x="530" y="770" width="120" height="60" as="geometry" />
        </mxCell>
        <mxCell id="2z1tpO251dpxnBg6ales-0" value="&lt;h1&gt;Bank&lt;/h1&gt;&lt;div&gt;Note: Only allowed in cities, asymmetrical CargoDist suggested for inter-bank transportation.&lt;/div&gt;" style="text;html=1;strokeColor=none;fillColor=none;spacing=5;spacingTop=-20;whiteSpace=wrap;overflow=hidden;rounded=0;" parent="WIyWlLk6GJQsqaUBKTNV-1" vertex="1">
          <mxGeometry x="1140" y="190" width="190" height="120" as="geometry" />
        </mxCell>
        <mxCell id="q9zW0HBqPHYGfLHhzIOr-0" value="Hardware&lt;div&gt;Store&lt;/div&gt;" style="shape=trapezoid;perimeter=trapezoidPerimeter;whiteSpace=wrap;html=1;fixedSize=1;" vertex="1" parent="WIyWlLk6GJQsqaUBKTNV-1">
          <mxGeometry x="425" y="620" width="90" height="40" as="geometry" />
        </mxCell>
      </root>
    </mxGraphModel>
  </diagram>
</mxfile>
